<svg width="1060" height="480" viewBox="0 0 1060 480" fill="none" xmlns="http://www.w3.org/2000/svg">
<g id="Group 1">
<g id="bag-2">
<path id="Vector" d="M785.098 210.944V132.6C785.098 124.788 791.453 118.434 799.264 118.434H850.516C858.327 118.434 864.682 124.788 864.682 132.6V210.944C864.682 218.755 858.327 225.11 850.516 225.11H799.264C791.453 225.11 785.098 218.755 785.098 210.944Z" fill="#6C63FF"/>
<g id="lock-2">
<path id="Vector_2" d="M811.344 152.299H838.436V145.526H811.344V152.299Z" fill="#3F3D56"/>
<path id="Vector_3" d="M818.117 140.446H831.663V118.434H818.117V140.446Z" fill="#3F3D56"/>
<path id="Vector_4" d="M818.117 225.11H831.663V203.097H818.117V225.11Z" fill="#3F3D56"/>
</g>
</g>
<g id="bag-1">
<path id="Vector_5" d="M748.692 214.11H670.348C662.537 214.11 656.182 207.755 656.182 199.944V148.692C656.182 140.881 662.537 134.526 670.348 134.526H748.692C756.504 134.526 762.858 140.881 762.858 148.692V199.944C762.858 207.755 756.504 214.11 748.692 214.11Z" fill="#6C63FF"/>
<g id="lock-1">
<path id="Vector_6" d="M724.76 145.532H697.667V152.305H724.76V145.532Z" fill="#3F3D56"/>
<path id="Vector_7" d="M678.195 181.091V167.545H656.182V181.091H678.195Z" fill="#3F3D56"/>
<path id="Vector_8" d="M762.858 181.091V167.545H740.846V181.091H762.858Z" fill="#3F3D56"/>
</g>
</g>
<path id="car" d="M113.182 360.61L100.103 284.317C94.2918 250.417 119.383 219.046 153.732 217.267L340.182 207.61L384.68 134.27C390.58 124.547 401.127 118.61 412.499 118.61H546.469C556.999 118.61 565.897 126.419 567.264 136.861L570.666 195.544L904.666 196.544L946.682 335.012L907.682 333.11L909.682 375.11L858.682 377.11L841.681 329.038C838.48 319.986 824.452 309.78 809.871 301.24C777.184 282.097 735.189 288.241 710.453 316.93C704.617 323.697 700.537 330.749 699.397 337.361L691.682 382.11L317.682 376.11L268.666 307.544C254.184 291.785 185.822 285.996 179.666 307.544L142.682 362.11L113.182 360.61Z" fill="#E6E6E6"/>
<path id="side-window" d="M519.678 163.236L530.682 215.11L390.682 218.11L420.25 154.625C422.933 148.866 428.821 145.29 435.168 145.566L502.255 148.483C510.748 148.852 517.915 154.921 519.678 163.236Z" fill="white"/>
<path id="front-window" d="M371.682 214.11L399.682 142.11L392.351 134.779L346.682 204.11L355.962 218.11L371.682 214.11Z" fill="white"/>
<g id="back-wheel">
<path id="Vector_9" d="M772.682 448.11C809.133 448.11 838.682 418.561 838.682 382.11C838.682 345.659 809.133 316.11 772.682 316.11C736.231 316.11 706.682 345.659 706.682 382.11C706.682 418.561 736.231 448.11 772.682 448.11Z" fill="#3F3D56"/>
<path id="Vector_10" d="M727.182 382.11C727.182 357.021 747.593 336.61 772.682 336.61C797.771 336.61 818.182 357.021 818.182 382.11C818.182 407.199 797.771 427.61 772.682 427.61C747.593 427.61 727.182 407.199 727.182 382.11ZM728.182 382.11C728.182 406.647 748.144 426.61 772.682 426.61C797.22 426.61 817.182 406.647 817.182 382.11C817.182 357.573 797.22 337.61 772.682 337.61C748.144 337.61 728.182 357.573 728.182 382.11Z" fill="white"/>
<path id="back-disc" d="M733.682 382.11C733.682 403.649 751.143 421.11 772.682 421.11C794.221 421.11 811.682 403.649 811.682 382.11C811.682 360.571 794.221 343.11 772.682 343.11C751.143 343.11 733.682 360.571 733.682 382.11ZM798.033 372.771L791.123 377.274L788.469 373.201L798.033 372.771ZM787.514 395.675L789.354 391.175L795.148 398.797L787.514 395.675ZM769.82 411.11L774.682 402.862V411.11H769.82ZM769.82 363.358L774.682 355.11V363.358H769.82ZM748.216 398.797L754.01 391.175L755.851 395.675L748.216 398.797ZM745.331 372.771L754.896 373.201L752.241 377.274L745.331 372.771Z" fill="#E6E6E6"/>
</g>
<g id="front-wheel">
<path id="Vector_11" d="M218.682 448.11C255.133 448.11 284.682 418.561 284.682 382.11C284.682 345.659 255.133 316.11 218.682 316.11C182.231 316.11 152.682 345.659 152.682 382.11C152.682 418.561 182.231 448.11 218.682 448.11Z" fill="#3F3D56"/>
<path id="Vector_12" d="M173.182 382.11C173.182 357.021 193.593 336.61 218.682 336.61C243.771 336.61 264.182 357.021 264.182 382.11C264.182 407.199 243.771 427.61 218.682 427.61C193.593 427.61 173.182 407.199 173.182 382.11ZM174.182 382.11C174.182 406.647 194.144 426.61 218.682 426.61C243.22 426.61 263.182 406.647 263.182 382.11C263.182 357.573 243.22 337.61 218.682 337.61C194.144 337.61 174.182 357.573 174.182 382.11Z" fill="white"/>
<path id="front-disc" d="M179.682 382.11C179.682 403.649 197.143 421.11 218.682 421.11C240.221 421.11 257.682 403.649 257.682 382.11C257.682 360.571 240.221 343.11 218.682 343.11C197.143 343.11 179.682 360.571 179.682 382.11ZM244.033 372.771L237.123 377.274L234.469 373.201L244.033 372.771ZM233.514 395.675L235.354 391.175L241.148 398.797L233.514 395.675ZM215.82 411.11L220.682 402.862V411.11H215.82ZM215.82 363.358L220.682 355.11V363.358H215.82ZM194.216 398.797L200.01 391.175L201.851 395.675L194.216 398.797ZM191.331 372.771L200.896 373.201L198.241 377.274L191.331 372.771Z" fill="#E6E6E6"/>
</g>
<g id="leaf">
<path id="Vector_13" d="M1029.79 398.654C1029.43 397.57 1026.75 398.048 1026.49 397.078C1026.23 396.112 1028.81 395.302 1030.79 392.58C1031.14 392.089 1033.39 388.996 1032.53 387.695C1030.89 385.228 1019.54 391.371 1016.81 387.924C1016.21 387.168 1015.97 385.869 1014.19 383.452C1013.48 382.491 1013.02 382.026 1012.48 382.04C1011.71 382.06 1011.43 383.024 1010.22 384.772C1008.4 387.392 1007.75 387.063 1006.55 389.211C1005.66 390.805 1005.55 391.823 1004.91 391.883C1004.01 391.968 1003.63 389.984 1002.52 389.907C1001.39 389.828 1000.26 391.789 999.7 393.321C998.647 396.196 999.299 398.394 999.443 400.584C999.6 402.964 999.232 406.448 996.646 410.92L972.254 449.782C977.492 441.859 992.362 420.256 998.353 412.332C1000.08 410.044 1001.94 407.747 1004.8 407.315C1007.56 406.899 1010.91 408.261 1015.58 408.182C1016.13 408.173 1017.65 408.128 1018.02 407.322C1018.33 406.656 1017.57 406.077 1017.84 405.45C1018.21 404.61 1019.88 404.971 1022.15 404.413C1023.75 404.02 1024.84 403.37 1025.78 402.811C1026.06 402.642 1030.26 400.097 1029.79 398.654Z" fill="#F2F2F2"/>
<path id="Vector_14" d="M965.902 407.728C965.268 407.589 964.727 409.044 964.177 408.891C963.629 408.738 963.975 407.24 963.209 405.485C963.071 405.169 962.2 403.174 961.313 403.221C959.632 403.311 959.37 410.657 956.891 411C956.348 411.075 955.639 410.821 953.939 410.999C953.262 411.069 952.903 411.159 952.753 411.429C952.54 411.813 952.934 412.227 953.442 413.326C954.204 414.975 953.853 415.202 954.562 416.409C955.087 417.305 955.557 417.651 955.401 417.982C955.181 418.452 954.099 418.063 953.742 418.585C953.377 419.118 954.013 420.239 954.603 420.956C955.71 422.303 956.977 422.617 958.093 423.178C959.307 423.787 960.91 424.974 962.359 427.533L974.395 450.718C972.018 445.861 965.705 432.329 963.545 427.103C962.921 425.594 962.33 424.019 962.943 422.49C963.533 421.018 965.169 419.767 966.48 417.448C966.633 417.177 967.049 416.418 966.761 416.004C966.522 415.662 966.018 415.867 965.791 415.551C965.485 415.127 966.143 414.413 966.525 413.138C966.794 412.238 966.789 411.517 966.784 410.896C966.783 410.709 966.746 407.913 965.902 407.728Z" fill="#F2F2F2"/>
<path id="Vector_15" d="M977.909 413.385L978.288 409.892L978.52 409.672C979.593 408.658 980.265 407.583 980.517 406.476C980.557 406.301 980.588 406.123 980.62 405.941C980.745 405.223 980.901 404.331 981.592 403.403C981.978 402.887 983 401.719 984.055 402.127C984.339 402.233 984.531 402.418 984.665 402.613C984.698 402.58 984.732 402.546 984.769 402.509C985.224 402.066 985.543 401.904 985.85 401.748C986.086 401.628 986.329 401.504 986.741 401.175C986.922 401.03 987.067 400.9 987.189 400.791C987.559 400.461 988.032 400.074 988.68 400.227C989.367 400.415 989.603 401.07 989.759 401.504C990.038 402.278 990.124 402.81 990.181 403.163C990.201 403.292 990.225 403.437 990.243 403.485C990.393 403.864 992.281 403.962 992.991 404.003C994.588 404.089 995.969 404.164 996.302 405.257C996.54 406.039 996.043 406.892 994.782 407.86C994.39 408.161 993.997 408.369 993.655 408.524C993.865 408.723 994.033 408.994 994.043 409.362C994.066 410.234 993.172 410.904 991.384 411.355C990.94 411.468 990.343 411.618 989.561 411.58C989.193 411.562 988.87 411.506 988.595 411.453C988.554 411.61 988.479 411.773 988.344 411.927C987.946 412.383 987.303 412.498 986.431 412.242C985.468 411.973 984.708 411.609 984.037 411.288C983.45 411.009 982.945 410.77 982.521 410.705C981.732 410.594 980.996 411.081 980.116 411.73L977.909 413.385Z" fill="#F2F2F2"/>
<path id="Vector_16" d="M984.206 393.49L980.731 394.01L980.46 393.841C979.206 393.06 977.996 392.683 976.862 392.72C976.682 392.726 976.502 392.741 976.319 392.756C975.592 392.817 974.689 392.892 973.617 392.46C973.019 392.217 971.63 391.524 971.757 390.401C971.788 390.099 971.918 389.866 972.073 389.688C972.032 389.664 971.991 389.639 971.946 389.613C971.402 389.285 971.165 389.018 970.936 388.761C970.76 388.563 970.578 388.359 970.155 388.044C969.97 387.906 969.807 387.799 969.67 387.708C969.257 387.434 968.763 387.075 968.747 386.409C968.754 385.697 969.328 385.303 969.708 385.041C970.386 384.575 970.879 384.357 971.206 384.212C971.326 384.16 971.46 384.1 971.501 384.071C971.83 383.829 971.446 381.978 971.305 381.281C970.984 379.715 970.706 378.359 971.679 377.76C972.375 377.332 973.326 377.596 974.582 378.57C974.973 378.873 975.274 379.201 975.51 379.492C975.649 379.238 975.869 379.007 976.223 378.904C977.06 378.66 977.935 379.356 978.825 380.97C979.047 381.371 979.344 381.911 979.505 382.677C979.581 383.038 979.608 383.364 979.627 383.643C979.789 383.643 979.966 383.675 980.149 383.767C980.691 384.036 980.966 384.628 980.939 385.537C980.923 386.536 980.763 387.364 980.623 388.095C980.502 388.733 980.399 389.282 980.444 389.709C980.537 390.5 981.195 391.088 982.045 391.776L984.206 393.49Z" fill="#F2F2F2"/>
<path id="Vector_17" d="M984.674 383.056L985.052 379.563L985.284 379.343C986.358 378.329 987.029 377.254 987.281 376.147C987.321 375.972 987.353 375.794 987.384 375.612C987.51 374.894 987.666 374.002 988.356 373.074C988.743 372.558 989.765 371.39 990.819 371.798C991.104 371.904 991.296 372.089 991.429 372.284C991.463 372.251 991.497 372.217 991.534 372.18C991.989 371.737 992.308 371.575 992.615 371.419C992.85 371.299 993.094 371.175 993.506 370.846C993.687 370.701 993.831 370.571 993.953 370.462C994.323 370.132 994.796 369.745 995.445 369.898C996.132 370.086 996.367 370.741 996.523 371.175C996.803 371.949 996.889 372.481 996.945 372.834C996.966 372.963 996.99 373.108 997.008 373.156C997.158 373.535 999.046 373.633 999.756 373.674C1001.35 373.76 1002.73 373.835 1003.07 374.928C1003.3 375.71 1002.81 376.563 1001.55 377.531C1001.15 377.832 1000.76 378.04 1000.42 378.195C1000.63 378.394 1000.8 378.665 1000.81 379.033C1000.83 379.905 999.936 380.575 998.149 381.026C997.705 381.139 997.107 381.289 996.326 381.251C995.957 381.233 995.635 381.177 995.36 381.124C995.319 381.281 995.244 381.444 995.108 381.598C994.71 382.054 994.068 382.169 993.196 381.913C992.233 381.644 991.472 381.28 990.801 380.959C990.215 380.68 989.709 380.441 989.285 380.375C988.496 380.265 987.761 380.752 986.88 381.401L984.674 383.056Z" fill="#F2F2F2"/>
<path id="Vector_18" d="M973.407 449.98L972.793 449.374L971.939 449.283C971.943 449.203 971.937 449.015 971.931 448.722C971.898 447.115 971.796 442.225 972.477 434.711C972.953 429.466 973.747 424.142 974.839 418.884C975.932 413.617 977.067 409.699 977.979 406.549C978.666 404.174 979.361 401.921 980.038 399.727C981.847 393.863 983.555 388.325 984.612 382.007C984.849 380.597 985.341 377.661 984.334 374.196C983.751 372.187 982.751 370.295 981.362 368.576L982.706 367.491C984.239 369.39 985.344 371.485 985.993 373.716C987.108 377.558 986.573 380.757 986.316 382.294C985.239 388.723 983.514 394.315 981.688 400.234C981.014 402.421 980.322 404.664 979.637 407.03C978.734 410.15 977.609 414.034 976.53 419.233C975.451 424.428 974.666 429.687 974.196 434.866C973.524 442.285 973.625 447.103 973.658 448.686C973.675 449.531 973.679 449.708 973.407 449.98Z" fill="#F2F2F2"/>
<path id="Vector_19" d="M977.675 370.564C977.606 370.549 977.536 370.531 977.467 370.511C976.049 370.113 974.912 368.958 974.086 367.078C973.699 366.193 973.608 365.263 973.426 363.407C973.397 363.12 973.271 361.673 973.426 359.754C973.527 358.5 973.662 357.996 974.003 357.6C974.382 357.16 974.893 356.908 975.432 356.781C975.447 356.615 975.501 356.453 975.609 356.299C976.053 355.66 976.796 355.922 977.199 356.059C977.402 356.132 977.655 356.225 977.94 356.273C978.387 356.35 978.654 356.271 979.059 356.154C979.446 356.042 979.927 355.902 980.592 355.914C981.904 355.932 982.875 356.522 983.196 356.716C984.883 357.73 985.465 359.347 986.139 361.219C986.273 361.594 986.717 362.951 986.821 364.698C986.896 365.958 986.73 366.474 986.541 366.843C986.154 367.601 985.562 367.953 984.092 368.693C982.556 369.468 981.786 369.856 981.154 370.055C979.684 370.516 978.761 370.806 977.675 370.564Z" fill="#F2F2F2"/>
</g>
<path id="ground" d="M28 448.48C28 449.14 28.9253 449.67 30.0775 449.67H1021.85C1023 449.67 1023.93 449.14 1023.93 448.48C1023.93 447.82 1023 447.29 1021.85 447.29H30.0775C28.9253 447.29 28 447.82 28 448.48Z" fill="#CCCCCC"/>
<g id="Group">
<g id="left-leg">
<path id="Vector_20" d="M531.94 440.967L545.825 440.965L552.43 387.41L531.938 387.411L531.94 440.967Z" fill="#FFB6B6"/>
<path id="Vector_21" d="M579.511 440.652C579.943 441.38 580.171 443.73 580.171 444.577C580.171 447.179 578.062 449.289 575.459 449.289L532.46 449.289C530.684 449.289 529.245 447.85 529.245 446.074V444.284C529.245 444.284 527.118 438.903 531.497 432.272C531.497 432.272 536.94 437.464 545.073 429.331L547.472 424.986L564.833 437.684L574.456 438.868C576.561 439.127 578.428 438.828 579.511 440.652Z" fill="#2F2E41"/>
</g>
<g id="right-leg">
<path id="Vector_22" d="M469.558 440.967L483.442 440.965L490.047 387.41L469.555 387.411L469.558 440.967Z" fill="#FFB6B6"/>
<path id="Vector_23" d="M517.128 440.652C517.561 441.38 517.789 443.73 517.789 444.577C517.789 447.179 515.679 449.289 513.076 449.289L470.077 449.289C468.302 449.289 466.862 447.85 466.862 446.074V444.284C466.862 444.284 464.735 438.903 469.114 432.272C469.114 432.272 474.557 437.464 482.691 429.331L485.089 424.986L502.45 437.684L512.073 438.868C514.179 439.127 516.045 438.828 517.128 440.652Z" fill="#2F2E41"/>
</g>
<path id="neck" d="M529.741 75.2755L532.377 99.8771L501.625 97.2412L506.897 74.3969L529.741 75.2755Z" fill="#FFB6B6"/>
<path id="face" d="M518.759 78.3507C529.919 78.3507 538.967 69.3031 538.967 58.1423C538.967 46.9815 529.919 37.9339 518.759 37.9339C507.598 37.9339 498.55 46.9815 498.55 58.1423C498.55 69.3031 507.598 78.3507 518.759 78.3507Z" fill="#FFB6B6"/>
<path id="body" d="M531.938 89.7729L565.765 109.542L554.682 163.138L562.251 235.186L556.979 411.79L524.47 408.276L520.076 258.03L494.596 413.547H463.028L468.237 245.729L484.053 174.561L474.388 97.2412L503.822 88.0157L531.938 89.7729Z" fill="#2F2E41"/>
<path id="hair" d="M533.256 63.8534C533.256 63.8534 535.013 57.703 538.967 58.1423C542.921 58.5816 543.799 55.0671 542.921 53.3098C542.042 51.5526 540.285 42.7663 540.285 42.7663C540.285 42.7663 541.164 36.6159 535.892 35.7373C530.62 34.8587 528.863 33.98 527.984 32.2228C527.106 30.4655 513.926 28.7083 509.533 31.3441C505.14 33.98 501.625 39.0373 498.55 40.4625C495.475 41.8877 492.839 44.5236 494.596 48.9167C496.354 53.3098 498.902 61.9019 498.902 61.9019C498.902 61.9019 503.383 60.3389 504.261 62.9748C505.14 65.6106 501.625 62.0961 506.018 55.0671C510.412 48.0381 510.412 41.0091 517.441 43.6449C524.47 46.2808 532.377 45.4022 531.499 50.674C530.62 55.9457 533.256 63.8534 533.256 63.8534Z" fill="#2F2E41"/>
<g id="left-hand">
<path id="uuid-2f48dadd-bd50-474e-b6bc-efb589732da4-288" d="M548.321 219.424C544.092 223.902 542.974 229.714 545.825 232.405C548.675 235.096 554.413 233.647 558.643 229.167C560.357 227.401 561.624 225.249 562.336 222.893L580.015 203.694L570.829 195.589L554.375 215.377C552.063 216.223 549.987 217.611 548.321 219.424Z" fill="#FFB6B6"/>
<path id="Vector_24" d="M565.409 109.103L595.182 159.826L599.592 182.982L570.923 219.371L558.793 203.933L573.128 182.982L549.972 142.183L565.409 109.103Z" fill="#2F2E41"/>
</g>
<g id="bag-3">
<path id="Vector_25" d="M481.701 214.701V154.896C481.701 145.781 489.116 138.365 498.232 138.365H589.651C598.767 138.365 606.182 145.781 606.182 154.896V214.701C606.182 223.817 598.767 231.232 589.651 231.232H498.232C489.116 231.232 481.701 223.817 481.701 214.701Z" fill="#6C63FF"/>
<g id="lock-3">
<path id="Vector_26" d="M526.159 176.112H557.773V168.209H526.159V176.112Z" fill="#3F3D56"/>
<path id="Vector_27" d="M555.182 230.702V214.895H529.495V230.702H555.182Z" fill="#3F3D56"/>
<path id="Vector_28" d="M556.388 154.702V138.895H530.701V154.702H556.388Z" fill="#3F3D56"/>
</g>
</g>
<g id="right-hand">
<path id="uuid-f6ce86b9-37cf-4878-a476-c93c5a2c7b27-289" d="M490.953 208.002C495.182 212.48 496.3 218.292 493.45 220.983C490.599 223.674 484.861 222.225 480.631 217.745C478.917 215.978 477.651 213.827 476.938 211.471L459.259 192.271L468.446 184.167L484.899 203.955C487.211 204.801 489.287 206.189 490.953 208.002Z" fill="#FFB6B6"/>
<path id="Vector_29" d="M473.865 97.6806L444.093 148.404L439.682 171.56L468.352 207.948L480.481 192.511L466.146 171.56L489.303 130.761L473.865 97.6806Z" fill="#2F2E41"/>
</g>
</g>
<path id="Lamp" d="M103.666 339.544C118.577 339.544 130.666 329.023 130.666 316.044C130.666 303.065 118.577 292.544 103.666 292.544C88.754 292.544 76.6657 303.065 76.6657 316.044C76.6657 329.023 88.754 339.544 103.666 339.544Z" fill="#E6E6E6"/>
</g>
</svg>
